<svg xmlns="http://www.w3.org/2000/svg" viewBox="0 0 1979.63 552.83"><defs><style>.cls-1{fill:#7435da;}.cls-2{fill:#fff;}.cls-3{fill:#ddd;}.cls-4{fill:#111;}.cls-5{fill:none;}</style></defs><title>logo-light</title><g id="Layer_2" data-name="Layer 2"><g id="logo-light"><g id="Comet"><path class="cls-1" d="M1301.4,552.83c-1.59,0-3.19,0-4.79-.07l-3.66-.14c-32.79-1.72-66-13.69-104.4-37.68-31.13-19.45-62.69-44.85-96.11-71.73-101.34-81.55-227.45-183-430-183a684.54,684.54,0,0,0-99.18,7.52c-225.31,33.15-430.16,142-524.87,210.16C131.2,329.54,348.33,183,395.28,152.41l.34-.22.32-.24C451.44,110.22,604.2,12,823.4,1c12.86-.64,25.88-1,38.72-1C994.92,0,1125,34.06,1248.73,101.23c67.46,36.62,131.06,82.26,184,132a189.63,189.63,0,0,1,47.17,77.58,185.52,185.52,0,0,1,8.31,54.63V366C1488.17,469,1404.38,552.83,1301.4,552.83Z" transform="translate(-16.74)"/><path class="cls-2" d="M1417.79,381.23q-4.85,48.48-41.93,78.88t-85.61,25.55q-49.1-4.91-79.54-41.9T1185,359a118.12,118.12,0,0,1,21.29-57.47,114.36,114.36,0,0,1,105.29-48q50.18,5,80.62,41.87T1417.79,381.23Z" transform="translate(-16.74)"/><path class="cls-3" d="M1385.34,287.8c-33.49-3.56-69.94,4.44-105.22,35.86-54,48.07-63.09,95.16-58.72,131.57a123.23,123.23,0,0,1-10.69-11.47q-30.43-37-25.67-84.72a118.12,118.12,0,0,1,21.29-57.47,114.36,114.36,0,0,1,105.29-48Q1356.32,258.05,1385.34,287.8Z" transform="translate(-16.74)"/></g><g id="Text"><path class="cls-4" d="M233.66,296.48,216.17,309.9a95.69,95.69,0,0,0-34.77-28.58,101.72,101.72,0,0,0-44.58-9.73,98.62,98.62,0,0,0-49.18,12.74,91.55,91.55,0,0,0-35.07,34.24q-12.45,21.51-12.44,48.35,0,40.59,27.83,67.73t70.22,27.16q46.6,0,78-36.51l17.49,13.28a111.75,111.75,0,0,1-41.4,32.65q-24.82,11.55-55.44,11.54Q78.59,482.77,45,444,16.75,411.27,16.74,365q0-48.72,34.17-82t85.61-33.26q31.06,0,56.11,12.3A108.76,108.76,0,0,1,233.66,296.48Z" transform="translate(-16.74)"/><path class="cls-4" d="M383.83,249.71q50.42,0,84.38,33.64t34,82.82q0,48.72-33.89,82.66t-82.65,33.94q-49.35,0-83.32-33.79t-34-81.76a118.25,118.25,0,0,1,15.47-59.28,114.27,114.27,0,0,1,100-58.23Zm1,21.57a94.77,94.77,0,0,0-81.13,47.41q-12.39,21.74-12.39,48.46,0,39.56,27.42,66.8t66.1,27.25a94.83,94.83,0,0,0,47.82-12.53,89.63,89.63,0,0,0,34.3-34.27q12.31-21.73,12.32-48.31,0-26.41-12.32-47.78a92,92,0,0,0-34.67-34.19A93.81,93.81,0,0,0,384.81,271.28Z" transform="translate(-16.74)"/><path class="cls-4" d="M546.68,477.19V255.29h46q49.79,0,72.26,8,32.28,11.31,50.46,39.22T733.58,369q0,33.35-14.41,58.68t-37.41,37.41q-23,12.08-64.49,12.07Zm21.27-21h25.64q46,0,63.81-5.72,25-8.14,39.37-29.32t14.33-51.77q0-32.1-15.54-54.86t-43.29-31.2Q631.45,277,583.63,277H568Z" transform="translate(-16.74)"/><path class="cls-4" d="M776.72,255.29H903.89V277h-105v69.54H903v21.72H798.9v87.19H903v21.72H776.72Z" transform="translate(-16.74)"/><path class="cls-4" d="M1160.53,294.29,1131,322.45q-30.15-31.86-67.83-31.86-31.8,0-53.58,21.75t-21.78,53.6q0,22.2,9.65,39.41a69.07,69.07,0,0,0,27.28,27,79.26,79.26,0,0,0,39.19,9.82,80.65,80.65,0,0,0,33.61-6.88q15.21-6.85,33.46-25l28.63,29.88q-24.58,24-46.46,33.27t-49.93,9.28q-51.75,0-84.7-32.81t-33-84.09q0-33.19,15-59t43-41.48a121.2,121.2,0,0,1,60.26-15.69,127.93,127.93,0,0,1,96.7,44.58Z" transform="translate(-16.74)"/><path class="cls-5" d="M1302.25,249.71q47.09,0,81,34.09t33.89,83.12q0,48.58-33.44,82.21t-81.13,33.64q-50,0-83-34.54t-33.06-82.06a115,115,0,0,1,15.4-58.53,116.19,116.19,0,0,1,100.38-57.93ZM1301.8,291q-30.81,0-51.8,21.43t-21,54.45q0,36.81,26.43,58.23a72.45,72.45,0,0,0,47.11,16.74q30,0,51.19-21.72t21.14-53.55q0-31.68-21.29-53.63T1301.8,291Z" transform="translate(-16.74)"/><path class="cls-4" d="M1478.47,255.29h41.15l51.44,154.77L1623,255.29h41.12l37.23,221.9h-40.85l-23.79-140.14-47.14,140.14h-37.22l-46.73-140.14-24.36,140.14h-41.18Z" transform="translate(-16.74)"/><path class="cls-4" d="M1735.11,255.29h121.13v41.34h-79.19v40.12h79.19v40.58h-79.19v58.38h79.19v41.48H1735.11Z" transform="translate(-16.74)"/><path class="cls-4" d="M1873.74,255.29h122.64v41.64H1956V477.19h-42.84V296.93h-39.37Z" transform="translate(-16.74)"/></g></g></g></svg>